<svg id="Layer_1" data-name="Layer 1" xmlns="http://www.w3.org/2000/svg" viewBox="0 0 553.15 227.49"><defs><style>.cls-1{fill:#f6f6f6;}</style></defs><path class="cls-1" d="M456,34.86v56.8A59.65,59.65,0,0,0,358.41,120a59.56,59.56,0,0,0-115,.58h0A59.31,59.31,0,0,0,185.79,76.2C153,76.2,126.4,102.53,126.4,135s26.59,58.82,59.39,58.82a59.32,59.32,0,0,0,57.59-44.37h0a59.55,59.55,0,0,0,115,.63l0-.06A59.64,59.64,0,0,0,456,178.39h0v15.19H479.2V34.86ZM185.49,170.12a35.18,35.18,0,1,1,35.43-35.18A35.31,35.31,0,0,1,185.49,170.12Zm114.74,0a35.18,35.18,0,1,1,35.44-35.18A35.31,35.31,0,0,1,300.23,170.12Zm114.88,0h-.18A35.18,35.18,0,1,1,436.2,106.8a35,35,0,0,1-21.09,63.32Z"/><path class="cls-1" d="M51.56,193.71a17.85,17.85,0,1,1,18-17.84A17.93,17.93,0,0,1,51.56,193.71Zm0-25.62a7.78,7.78,0,1,0,7.85,7.78A7.82,7.82,0,0,0,51.56,168.09Z"/><rect class="cls-1" x="39.86" y="34.99" width="23.41" height="117.45"/><polygon class="cls-1" points="117.58 193.59 63.53 134.74 63.56 134.74 116.65 76.98 148.66 76.98 95.4 134.74 95.37 134.74 149.62 193.59 117.58 193.59"/><path class="cls-1" d="M501.58,35a17.85,17.85,0,1,0,18,17.84A17.93,17.93,0,0,0,501.58,35Zm0,25.62a7.78,7.78,0,1,1,7.86-7.78A7.82,7.82,0,0,1,501.58,60.61Z"/><rect class="cls-1" x="489.88" y="76.27" width="23.41" height="117.45"/></svg>