<svg width="60" height="50" viewBox="0 0 60 50" fill="none" xmlns="http://www.w3.org/2000/svg">
<path d="M26.8917 32.2336H16.8362C16.2412 32.2336 15.7593 32.7155 15.7593 33.3105V48.923C15.7593 49.5181 16.2412 50 16.8362 50H26.8917C27.4868 50 27.968 49.5181 27.968 48.923V33.3098C27.968 32.7148 27.4861 32.2336 26.8917 32.2336Z" fill="white"/>
<path d="M42.5705 0H32.5149C31.9199 0 31.438 0.481885 31.438 1.07695V48.9224C31.438 49.5174 31.9199 49.9993 32.5149 49.9993H42.5705C43.1655 49.9993 43.6474 49.5174 43.6474 48.9224V1.07695C43.6474 0.481885 43.1655 0 42.5705 0Z" fill="white"/>
<path d="M58.3292 14.5355H48.2737C47.6787 14.5355 47.1968 15.0174 47.1968 15.6125V48.9223C47.1968 49.5174 47.6787 49.9993 48.2737 49.9993H58.3285C58.9236 49.9993 59.4055 49.5174 59.4055 48.9223V15.6125C59.4055 15.0181 58.9236 14.5355 58.3292 14.5355Z" fill="white"/>
<path d="M11.1325 14.5355H1.07695C0.481885 14.5355 0 15.0174 0 15.6125V48.9223C0 49.5174 0.481885 49.9993 1.07695 49.9993H11.1325C11.7275 49.9993 12.2094 49.5174 12.2094 48.9223V15.6125C12.2094 15.0181 11.7275 14.5355 11.1325 14.5355Z" fill="white"/>
</svg>
