<svg width="90" height="70" viewBox="0 0 90 70" fill="none" xmlns="http://www.w3.org/2000/svg">
<path d="M89.9994 28.7503V31.2502C89.9994 33.3213 88.3205 35.0002 86.2495 35.0002H84.9995L80.9193 63.5607C80.3915 67.2555 77.2272 70 73.4948 70H16.5046C12.7723 70 9.60791 67.2555 9.07994 63.5607L4.99997 35.0002H3.74998C1.6789 35.0002 0 33.3213 0 31.2502V28.7503C0 26.6792 1.6789 25.0003 3.74998 25.0003H14.2719L30.9562 2.05965C32.5804 -0.173462 35.7073 -0.667366 37.9407 0.956843C40.174 2.58105 40.6677 5.70806 39.0435 7.94133L26.6369 25.0003H63.3626L50.9559 7.94117C49.3317 5.70806 49.8256 2.5809 52.0589 0.956687C54.2918 -0.667522 57.4192 -0.173775 59.0434 2.05949L75.7275 25.0003H86.2495C88.3205 25.0003 89.9994 26.6792 89.9994 28.7503ZM48.7497 56.2501V38.7502C48.7497 36.6791 47.0708 35.0002 44.9997 35.0002C42.9286 35.0002 41.2497 36.6791 41.2497 38.7502V56.2501C41.2497 58.3212 42.9286 60.0001 44.9997 60.0001C47.0708 60.0001 48.7497 58.3212 48.7497 56.2501ZM66.2496 56.2501V38.7502C66.2496 36.6791 64.5707 35.0002 62.4996 35.0002C60.4285 35.0002 58.7496 36.6791 58.7496 38.7502V56.2501C58.7496 58.3212 60.4285 60.0001 62.4996 60.0001C64.5707 60.0001 66.2496 58.3212 66.2496 56.2501ZM31.2498 56.2501V38.7502C31.2498 36.6791 29.5709 35.0002 27.4998 35.0002C25.4287 35.0002 23.7498 36.6791 23.7498 38.7502V56.2501C23.7498 58.3212 25.4287 60.0001 27.4998 60.0001C29.5709 60.0001 31.2498 58.3212 31.2498 56.2501Z" fill="white"/>
</svg>
