<svg width="78" height="70" viewBox="0 0 78 70" fill="none" xmlns="http://www.w3.org/2000/svg">
<path d="M34.996 50.5539L54.4383 35.0001L34.996 19.4463V31.1116H0V38.8885H34.996V50.5539Z" fill="white"/>
<path d="M42.7769 0.000133612C38.1789 -0.0126154 33.6241 0.88713 29.3763 2.64725C25.1285 4.40737 21.2722 6.99287 18.0308 10.254L23.529 15.7522C28.6696 10.6117 35.5055 7.77703 42.7769 7.77703C50.0483 7.77703 56.8841 10.6117 62.0247 15.7522C67.1652 20.8928 69.9999 27.7287 69.9999 35.0001C69.9999 42.2715 67.1652 49.1074 62.0247 54.2479C56.8841 59.3884 50.0483 62.2231 42.7769 62.2231C35.5055 62.2231 28.6696 59.3884 23.529 54.2479L18.0308 59.7462C24.6372 66.3565 33.4251 70 42.7769 70C52.1286 70 60.9165 66.3565 67.523 59.7462C74.1333 53.1397 77.7768 44.3518 77.7768 35.0001C77.7768 25.6483 74.1333 16.8605 67.523 10.254C64.2815 6.99287 60.4252 4.40737 56.1774 2.64725C51.9297 0.88713 47.3748 -0.0126154 42.7769 0.000133612Z" fill="white"/>
</svg>
