<svg width="70" height="70" viewBox="0 0 70 70" fill="none" xmlns="http://www.w3.org/2000/svg">
<path fill-rule="evenodd" clip-rule="evenodd" d="M41.5183 5.11883C39.8558 -1.70628 30.1431 -1.70628 28.4806 5.11883C28.2324 6.14441 27.7455 7.09691 27.0597 7.8988C26.3738 8.70068 25.5083 9.32931 24.5336 9.73352C23.5589 10.1377 22.5025 10.3061 21.4505 10.2249C20.3984 10.1438 19.3804 9.81534 18.4792 9.26639C12.4766 5.60884 5.60774 12.4777 9.2653 18.4803C11.6278 22.3566 9.53218 27.4142 5.12211 28.4861C-1.70737 30.1442 -1.70737 39.8612 5.12211 41.515C6.14797 41.7635 7.10063 42.2508 7.90252 42.9372C8.7044 43.6236 9.33285 44.4897 9.73667 45.4649C10.1405 46.4402 10.3083 47.497 10.2264 48.5493C10.1445 49.6017 9.81516 50.6198 9.2653 51.5208C5.60774 57.5234 12.4766 64.3923 18.4792 60.7347C19.3802 60.1848 20.3983 59.8555 21.4507 59.7736C22.503 59.6917 23.5598 59.8595 24.5351 60.2633C25.5103 60.6672 26.3764 61.2956 27.0628 62.0975C27.7492 62.8994 28.2365 63.852 28.485 64.8779C30.1431 71.7074 39.8602 71.7074 41.5139 64.8779C41.7633 63.8526 42.2511 62.9006 42.9376 62.0992C43.6241 61.2979 44.4901 60.6698 45.465 60.2661C46.4399 59.8624 47.4964 59.6945 48.5484 59.7759C49.6005 59.8573 50.6185 60.1858 51.5197 60.7347C57.5223 64.3923 64.3912 57.5234 60.7336 51.5208C60.1847 50.6196 59.8562 49.6016 59.7748 48.5495C59.6934 47.4975 59.8614 46.441 60.2651 45.4661C60.6688 44.4912 61.2968 43.6252 62.0981 42.9387C62.8995 42.2522 63.8515 41.7644 64.8768 41.515C71.7063 39.8569 71.7063 30.1398 64.8768 28.4861C63.8509 28.2375 62.8983 27.7502 62.0964 27.0639C61.2945 26.3775 60.6661 25.5114 60.2622 24.5362C59.8584 23.5609 59.6906 22.5041 59.7725 21.4518C59.8545 20.3994 60.1837 19.3813 60.7336 18.4803C64.3912 12.4777 57.5223 5.60884 51.5197 9.26639C50.6187 9.81626 49.6006 10.1456 48.5482 10.2275C47.4959 10.3094 46.4391 10.1416 45.4638 9.73776C44.4886 9.33394 43.6225 8.7055 42.9361 7.90361C42.2498 7.10172 41.7625 6.14906 41.5139 5.1232L41.5183 5.11883ZM34.9995 48.1258C38.4805 48.1258 41.8189 46.7429 44.2804 44.2815C46.7418 41.82 48.1247 38.4816 48.1247 35.0005C48.1247 31.5195 46.7418 28.1811 44.2804 25.7196C41.8189 23.2582 38.4805 21.8753 34.9995 21.8753C31.5184 21.8753 28.18 23.2582 25.7185 25.7196C23.2571 28.1811 21.8743 31.5195 21.8743 35.0005C21.8743 38.4816 23.2571 41.82 25.7185 44.2815C28.18 46.7429 31.5184 48.1258 34.9995 48.1258Z" fill="white"/>
</svg>
