<svg width="44" height="44" viewBox="0 0 44 44" fill="none" xmlns="http://www.w3.org/2000/svg">
<path d="M31.9429 26.4377C31.9429 28.326 32.4801 29.0791 33.8851 29.0791C37.0164 29.0791 39.0103 25.089 39.0103 18.4531C39.0103 8.31055 31.6192 3.45505 22.3915 3.45505C12.8985 3.45505 4.2643 9.82115 4.2643 21.852C4.2643 33.3433 11.8173 39.6016 23.4165 39.6016C27.3549 39.6016 29.9984 39.1699 34.0424 37.8212L34.9101 41.4336C30.9178 42.7307 26.6513 43.1061 23.3626 43.1061C8.1487 43.1061 0 34.7438 0 21.8497C0 8.8478 9.4435 0 22.4454 0C35.9869 0 43.16 8.0925 43.16 18.0193C43.16 26.4355 40.5187 32.8556 32.2104 32.8556C28.4317 32.8556 25.9522 31.3449 25.6285 27.9978C24.6574 31.7204 22.0678 32.8556 18.5588 32.8556C13.8652 32.8556 9.9268 29.2387 9.9268 21.9576C9.9268 14.6205 13.3818 10.0886 19.5861 10.0886C22.877 10.0886 24.9271 11.3834 25.8398 13.4335L27.4066 10.5742H31.9384V26.4377H31.9429ZM25.3093 19.3163C25.3093 16.3513 23.0951 15.1082 21.2608 15.1082C19.2646 15.1082 17.0549 16.7245 17.0549 21.4743C17.0549 25.2508 18.7274 27.3549 21.2608 27.3549C23.0411 27.3549 25.3093 26.2219 25.3093 23.0928V19.3163Z" fill="#8359FE"/>
</svg>
