<svg width="44" height="44" viewBox="0 0 44 44" fill="none" xmlns="http://www.w3.org/2000/svg">
<g clip-path="url(#clip0)">
<path fill-rule="evenodd" clip-rule="evenodd" d="M0.158203 22.1028C0.158203 32.8326 7.95108 41.7549 18.1431 43.5642V27.9767H12.7477V21.9823H18.1431V17.1857C18.1431 11.7902 21.6196 8.79396 26.5367 8.79396C28.0942 8.79396 29.774 9.03316 31.3315 9.27236V14.7883H28.5744C25.936 14.7883 25.3371 16.1066 25.3371 17.7864V21.9823H31.0923L30.1337 27.9767H25.3371V43.5642C35.5292 41.7549 43.322 32.8344 43.322 22.1028C43.322 10.1662 33.6102 0.400391 21.7401 0.400391C9.87007 0.400391 0.158203 10.1662 0.158203 22.1028Z" fill="#8359FE"/>
</g>
<defs>
<clipPath id="clip0">
<rect width="43.1638" height="43.1638" fill="white" transform="translate(0.158203 0.400391)"/>
</clipPath>
</defs>
</svg>
