<svg width="44" height="44" viewBox="0 0 44 44" fill="none" xmlns="http://www.w3.org/2000/svg">
<g clip-path="url(#clip0)">
<path fill-rule="evenodd" clip-rule="evenodd" d="M0.117188 21.7024C0.117188 32.4322 7.91006 41.3546 18.1021 43.1638V27.5763H12.7066V21.5819H18.1021V16.7853C18.1021 11.3899 21.5786 8.39357 26.4957 8.39357C28.0532 8.39357 29.733 8.63277 31.2905 8.87197V14.3879H28.5334C25.895 14.3879 25.2961 15.7062 25.2961 17.386V21.5819H31.0513L30.0927 27.5763H25.2961V43.1638C35.4882 41.3546 43.281 32.434 43.281 21.7024C43.281 9.76582 33.5692 0 21.6991 0C9.82905 0 0.117188 9.76582 0.117188 21.7024Z" fill="#545059"/>
</g>
<defs>
<clipPath id="clip0">
<rect width="43.1638" height="43.1638" fill="white" transform="translate(0.117188)"/>
</clipPath>
</defs>
</svg>
