<svg width="43" height="43" viewBox="0 0 43 43" fill="none" xmlns="http://www.w3.org/2000/svg">
<path d="M21.4999 14.6231C17.7131 14.6231 14.6229 17.7134 14.6229 21.5001C14.6229 25.2869 17.7131 28.3771 21.4999 28.3771C25.2866 28.3771 28.3769 25.2869 28.3769 21.5001C28.3769 17.7134 25.2866 14.6231 21.4999 14.6231ZM42.1257 21.5001C42.1257 18.6524 42.1515 15.8304 41.9916 12.9877C41.8316 9.68595 41.0784 6.75561 38.664 4.34118C36.2444 1.92159 33.3192 1.17353 30.0174 1.0136C27.1697 0.853669 24.3477 0.879464 21.505 0.879464C18.6572 0.879464 15.8352 0.853669 12.9926 1.0136C9.69083 1.17353 6.76049 1.92675 4.34606 4.34118C1.92647 6.76077 1.17841 9.68595 1.01848 12.9877C0.858552 15.8355 0.884347 18.6575 0.884347 21.5001C0.884347 24.3428 0.858552 27.1699 1.01848 30.0126C1.17841 33.3144 1.93163 36.2447 4.34606 38.6591C6.76565 41.0787 9.69083 41.8268 12.9926 41.9867C15.8404 42.1466 18.6624 42.1208 21.505 42.1208C24.3528 42.1208 27.1748 42.1466 30.0174 41.9867C33.3192 41.8268 36.2496 41.0735 38.664 38.6591C41.0836 36.2395 41.8316 33.3144 41.9916 30.0126C42.1567 27.1699 42.1257 24.3479 42.1257 21.5001ZM21.4999 32.0813C15.6444 32.0813 10.9187 27.3557 10.9187 21.5001C10.9187 15.6446 15.6444 10.919 21.4999 10.919C27.3554 10.919 32.0811 15.6446 32.0811 21.5001C32.0811 27.3557 27.3554 32.0813 21.4999 32.0813ZM32.5144 12.9568C31.1473 12.9568 30.0432 11.8527 30.0432 10.4856C30.0432 9.11845 31.1473 8.01442 32.5144 8.01442C33.8816 8.01442 34.9856 9.11845 34.9856 10.4856C34.986 10.8102 34.9224 11.1318 34.7983 11.4318C34.6743 11.7318 34.4923 12.0043 34.2627 12.2339C34.0332 12.4634 33.7606 12.6455 33.4606 12.7695C33.1606 12.8935 32.8391 12.9572 32.5144 12.9568Z" fill="#8359FE"/>
</svg>
