<svg width="42" height="43" viewBox="0 0 42 43" fill="none" xmlns="http://www.w3.org/2000/svg">
<path d="M20.6171 14.6231C16.8303 14.6231 13.7401 17.7134 13.7401 21.5001C13.7401 25.2869 16.8303 28.3771 20.6171 28.3771C24.4038 28.3771 27.4941 25.2869 27.4941 21.5001C27.4941 17.7134 24.4038 14.6231 20.6171 14.6231ZM41.2429 21.5001C41.2429 18.6524 41.2687 15.8304 41.1088 12.9877C40.9488 9.68595 40.1956 6.75561 37.7812 4.34118C35.3616 1.92159 32.4364 1.17353 29.1346 1.0136C26.2868 0.853669 23.4648 0.879464 20.6222 0.879464C17.7744 0.879464 14.9524 0.853669 12.1098 1.0136C8.80802 1.17353 5.87768 1.92675 3.46325 4.34118C1.04366 6.76077 0.2956 9.68595 0.135669 12.9877C-0.0242607 15.8355 0.00153453 18.6575 0.00153453 21.5001C0.00153453 24.3428 -0.0242607 27.1699 0.135669 30.0126C0.2956 33.3143 1.04882 36.2447 3.46325 38.6591C5.88284 41.0787 8.80802 41.8268 12.1098 41.9867C14.9576 42.1466 17.7796 42.1208 20.6222 42.1208C23.47 42.1208 26.292 42.1466 29.1346 41.9867C32.4364 41.8268 35.3668 41.0735 37.7812 38.6591C40.2008 36.2395 40.9488 33.3143 41.1088 30.0126C41.2739 27.1699 41.2429 24.3479 41.2429 21.5001ZM20.6171 32.0813C14.7615 32.0813 10.0359 27.3557 10.0359 21.5001C10.0359 15.6446 14.7615 10.919 20.6171 10.919C26.4726 10.919 31.1982 15.6446 31.1982 21.5001C31.1982 27.3557 26.4726 32.0813 20.6171 32.0813ZM31.6316 12.9568C30.2645 12.9568 29.1604 11.8527 29.1604 10.4856C29.1604 9.11845 30.2645 8.01442 31.6316 8.01442C32.9988 8.01442 34.1028 9.11845 34.1028 10.4856C34.1032 10.8102 34.0396 11.1318 33.9155 11.4318C33.7915 11.7318 33.6095 12.0043 33.3799 12.2339C33.1504 12.4634 32.8778 12.6455 32.5778 12.7695C32.2778 12.8935 31.9562 12.9572 31.6316 12.9568Z" fill="#545059"/>
</svg>
