<svg width="42" height="60" viewBox="0 0 42 60" fill="none" xmlns="http://www.w3.org/2000/svg">
<path d="M35.5835 30C37.1306 30 38.6143 30.6146 39.7083 31.7086C40.8022 32.8026 41.4168 34.2863 41.4168 35.8334V53.3334C41.4168 54.8805 40.8022 56.3642 39.7083 57.4582C38.6143 58.5521 37.1306 59.1667 35.5835 59.1667H6.41683C4.86973 59.1667 3.386 58.5521 2.29204 57.4582C1.19808 56.3642 0.583496 54.8805 0.583496 53.3334V35.8334C0.583496 34.2863 1.19808 32.8026 2.29204 31.7086C3.386 30.6146 4.86973 30 6.41683 30V15.4167C6.41683 11.549 7.95328 7.83964 10.6882 5.10473C13.4231 2.36983 17.1324 0.833374 21.0002 0.833374C24.8679 0.833374 28.5772 2.36983 31.3121 5.10473C34.047 7.83964 35.5835 11.549 35.5835 15.4167V30ZM21.0002 50.4167C22.5473 50.4167 24.031 49.8021 25.125 48.7082C26.2189 47.6142 26.8335 46.1305 26.8335 44.5834C26.8335 43.0363 26.2189 41.5526 25.125 40.4586C24.031 39.3646 22.5473 38.75 21.0002 38.75C19.4531 38.75 17.9693 39.3646 16.8754 40.4586C15.7814 41.5526 15.1668 43.0363 15.1668 44.5834C15.1668 46.1305 15.7814 47.6142 16.8754 48.7082C17.9693 49.8021 19.4531 50.4167 21.0002 50.4167ZM29.7502 30V15.4167C29.7502 13.0961 28.8283 10.8705 27.1873 9.22952C25.5464 7.58858 23.3208 6.66671 21.0002 6.66671C18.6795 6.66671 16.4539 7.58858 14.813 9.22952C13.172 10.8705 12.2502 13.0961 12.2502 15.4167V30H29.7502Z" fill="white"/>
</svg>
