<svg width="117" height="99" viewBox="0 0 117 99" fill="none" xmlns="http://www.w3.org/2000/svg">
<path fill-rule="evenodd" clip-rule="evenodd" d="M117 15.462C99.476 24.0521 90.7142 34.1453 90.7142 45.7419C98.1834 46.6009 104.36 49.6431 109.244 54.8688C114.127 60.0944 116.569 66.1431 116.569 73.0152C116.569 80.3167 114.199 86.4729 109.459 91.4837C104.719 96.4946 98.758 99 91.576 99C83.5322 99 76.5658 95.743 70.6766 89.2289C64.7874 82.7147 61.8429 74.8048 61.8429 65.4989C61.8429 37.5812 77.4993 15.7485 108.813 0L117 15.462ZM55.1571 15.462C37.4895 24.0521 28.6559 34.1453 28.6559 45.7419C36.2687 46.6009 42.5169 49.6431 47.4007 54.8688C52.2844 60.0944 54.7262 66.1431 54.7262 73.0152C54.7262 80.3167 52.3203 86.4729 47.5084 91.4837C42.6965 96.4946 36.6996 99 29.5177 99C21.4739 99 14.5434 95.743 8.72603 89.2289C2.90865 82.7147 0 74.8048 0 65.4989C0 37.5812 15.5846 15.7485 46.7543 0L55.1571 15.462Z" fill="#8359FE"/>
</svg>
