<svg width="81" height="70" viewBox="0 0 81 70" fill="none" xmlns="http://www.w3.org/2000/svg">
<path d="M68.9338 11.7564C61.4947 4.36174 51.473 0.147588 40.985 0.00380342C30.4969 -0.139981 20.3634 3.79786 12.7245 10.9858C5.08548 18.1737 0.538935 28.049 0.04491 38.5264C-0.449115 49.0039 3.14805 59.2632 10.0768 67.138L10.1071 67.1717C10.1627 67.2307 10.2149 67.2913 10.2756 67.3486C10.4003 67.4901 10.5418 67.6501 10.7085 67.8169C11.3626 68.5121 12.1531 69.0648 13.0306 69.4404C13.9081 69.816 14.8537 70.0065 15.8081 69.9998C16.7626 69.9932 17.7054 69.7896 18.5776 69.4018C19.4498 69.014 20.2325 68.4504 20.8769 67.7461C23.356 65.0517 26.3672 62.901 29.7201 61.4298C33.073 59.9586 36.6946 59.199 40.356 59.199C44.0175 59.199 47.6391 59.9586 50.992 61.4298C54.3448 62.901 57.356 65.0517 59.8352 67.7461C60.4843 68.4541 61.2733 69.0195 62.1523 69.4066C63.0313 69.7938 63.9811 69.9941 64.9416 69.9951C65.902 69.996 66.8522 69.7975 67.732 69.4122C68.6117 69.0268 69.4019 68.4629 70.0524 67.7563L70.5931 67.1666L70.6235 67.1329C77.4504 59.4239 81.0776 49.3999 80.7645 39.1072C80.4515 28.8146 76.2217 19.0295 68.9389 11.7496L68.9338 11.7564ZM37.6505 13.3989C37.6505 12.684 37.9345 11.9984 38.44 11.4929C38.9455 10.9875 39.6311 10.7035 40.3459 10.7035C41.0608 10.7035 41.7464 10.9875 42.2518 11.4929C42.7573 11.9984 43.0413 12.684 43.0413 13.3989V18.7896C43.0413 19.5045 42.7573 20.1901 42.2518 20.6955C41.7464 21.201 41.0608 21.485 40.3459 21.485C39.6311 21.485 38.9455 21.201 38.44 20.6955C37.9345 20.1901 37.6505 19.5045 37.6505 18.7896V13.3989ZM18.7829 43.048H13.3921C12.6773 43.048 11.9917 42.7641 11.4862 42.2586C10.9807 41.7531 10.6967 41.0675 10.6967 40.3527C10.6967 39.6378 10.9807 38.9522 11.4862 38.4467C11.9917 37.9413 12.6773 37.6573 13.3921 37.6573H18.7829C19.4977 37.6573 20.1833 37.9413 20.6888 38.4467C21.1943 38.9522 21.4783 39.6378 21.4783 40.3527C21.4783 41.0675 21.1943 41.7531 20.6888 42.2586C20.1833 42.7641 19.4977 43.048 18.7829 43.048ZM27.0038 27.0105C26.4984 27.5156 25.813 27.7994 25.0985 27.7994C24.3839 27.7994 23.6986 27.5156 23.1932 27.0105L19.3809 23.1999C18.8754 22.6944 18.5914 22.0087 18.5914 21.2938C18.5914 20.5789 18.8754 19.8932 19.3809 19.3877C19.8865 18.8821 20.5721 18.5981 21.2871 18.5981C22.002 18.5981 22.6877 18.8821 23.1932 19.3877L27.0038 23.1999C27.5089 23.7054 27.7926 24.3907 27.7926 25.1052C27.7926 25.8198 27.5089 26.5051 27.0038 27.0105ZM52.1551 30.902L44.1531 43.6208C43.8258 44.0745 43.4276 44.4727 42.9739 44.8C41.8786 45.5642 40.5261 45.8655 39.21 45.6386C37.894 45.4117 36.7204 44.675 35.9442 43.5882C35.1679 42.5015 34.8516 41.1524 35.0638 39.8339C35.2761 38.5154 35.9997 37.3337 37.0778 36.5454L49.7966 28.5435C50.0857 28.342 50.4297 28.2339 50.7821 28.2339C51.1345 28.2339 51.4785 28.342 51.7676 28.5435C52.1307 28.8057 52.3753 29.2009 52.4479 29.6428C52.5205 30.0848 52.4152 30.5374 52.1551 30.902ZM57.4986 27.0105C56.9891 27.4947 56.3105 27.7606 55.6076 27.7516C54.9048 27.7426 54.2333 27.4594 53.7362 26.9624C53.2392 26.4653 52.956 25.7938 52.947 25.091C52.938 24.3881 53.2039 23.7095 53.6881 23.1999L57.4986 19.3877C58.0042 18.8821 58.6898 18.5981 59.4048 18.5981C60.1197 18.5981 60.8054 18.8821 61.3109 19.3877C61.8165 19.8932 62.1005 20.5789 62.1005 21.2938C62.1005 22.0087 61.8165 22.6944 61.3109 23.1999L57.4986 27.0105ZM67.2997 43.048H61.909C61.1941 43.048 60.5085 42.7641 60.003 42.2586C59.4976 41.7531 59.2136 41.0675 59.2136 40.3527C59.2136 39.6378 59.4976 38.9522 60.003 38.4467C60.5085 37.9413 61.1941 37.6573 61.909 37.6573H67.2997C68.0146 37.6573 68.7002 37.9413 69.2056 38.4467C69.7111 38.9522 69.9951 39.6378 69.9951 40.3527C69.9951 41.0675 69.7111 41.7531 69.2056 42.2586C68.7002 42.7641 68.0146 43.048 67.2997 43.048Z" fill="white"/>
</svg>
